<svg version="1.1" x="0px" y="0px" width="425" height="205" xmlns="http://www.w3.org/2000/svg" xmlns:xlink="http://www.w3.org/1999/xlink" xmlns:a="http://ns.adobe.com/AdobeSVGViewerExtensions/3.0/" xml:space="preserve"><g transform="translate(20 19.999992370605) scale(1.314739743881 1.3147409142726) rotate(0 59.381530761719 62.75)"><linearGradient id="SVGID_1" x1="0%" y1="0%" x2="100%" y2="0%" gradientTransform="rotate(90)"><stop offset="0%" stop-color="#053c65" stop-opacity="1"></stop><stop offset="100%" stop-color="#6683a2" stop-opacity="1"></stop></linearGradient><path d="M115.41,42.853C86.068,73.162,42.088,86.996,0,90.117c4.327,8.979,10.743,16.76,18.611,22.724
	c23.853-2.209,47.682-8.09,69.535-17.705c1.243-0.548,2.465-1.123,3.674-1.715c9.408-4.6,17.811-10.497,25.542-17.221
	c0.911-4.244,1.401-8.645,1.401-13.161C118.763,55.973,117.572,49.188,115.41,42.853z" fill="url(#SVGID_1)"></path><linearGradient id="SVGID_2" x1="0%" y1="0%" x2="100%" y2="0%" gradientTransform="rotate(90)"><stop offset="0%" stop-color="#053c65" stop-opacity="1"></stop><stop offset="100%" stop-color="#6683a2" stop-opacity="1"></stop></linearGradient><path d="M91.191,103.881c-11.611,4.973-23.641,8.986-35.91,12.047c-7.705,1.921-15.503,3.472-23.358,4.629
	c7.491,3.18,15.729,4.943,24.38,4.943c17.359,0,33.057-7.088,44.375-18.52c4.181-4.222,7.769-9.031,10.615-14.302
	C105.046,97.002,98.388,100.798,91.191,103.881z" fill="url(#SVGID_2)"></path><path d="M22.785,79.767c7.173-1.274,14.306-2.893,21.321-4.879V31.709H22.785V79.767z" fill="#34a861"></path><path d="M48.721,74.071c7.278-2.174,14.417-4.747,21.321-7.766V17.494H48.721V74.071z" fill="#34a861"></path><path d="M74.509,65.109c7.436-3.403,14.583-7.325,21.321-11.814V0H74.509V65.109z" fill="#34a861"></path></g>
<g transform="translate(196.142578125 150.66128761538)  scale(1 1)"><text dominant-baseline="auto" alignment-baseline="auto" font-family="Gotham Black" font-size="34px" fill="#6683a2" letter-spacing="0" xml:space="preserve">.consulting</text></g>
<g transform="translate(196.142578125 106.33870697021)  scale(1 1)"><text dominant-baseline="auto" alignment-baseline="auto" font-family="Gotham Black" font-size="62px" fill="#34a861" letter-spacing="0" xml:space="preserve">GEOID</text></g>
</svg>